# xmcd
#
# Track frame offsets: 
#        150
#        35597
#        79932
#        104300
#        141047
#        196162
#        234140
#        268207
#
# Disc length: 3987 seconds
#
# Revision: 1
# Processed by: cddbd v1.5.1PL2 Copyright (c) Steve Scherf et al.
# Submitted via: ExactAudioCopy v0.95b4
#
DISCID=650f9108
DTITLE=Ralph Lalama - Momentum
DYEAR=1991
DGENRE=Jazz
TTITLE0=Da-Lama's Da-Lemma
TTITLE1=Rainbow People
TTITLE2=The Breakthrough
TTITLE3=Kids Know
TTITLE4=Detour Ahead
TTITLE5=Wonderful, wonderful
TTITLE6=Beautiful Moons Ago
TTITLE7=Pal Joey
EXTD=
EXTT0=
EXTT1=
EXTT2=
EXTT3=
EXTT4=
EXTT5=
EXTT6=
EXTT7=
PLAYORDER=
